<svg version="1.1" viewBox="0.000000 0.000000 96.000000 96.000000" xmlns="http://www.w3.org/2000/svg" xmlns:xlink="http://www.w3.org/1999/xlink" id="Icons_ShoppingCart" overflow="hidden"><path d=" M 31.000000 31.000000 L 20.000000 31.000000 L 20.000000 24.000000 L 31.000000 24.000000 L 31.000000 31.000000 Z M 46.000000 24.000000 L 46.000000 31.000000 L 35.000000 31.000000 L 35.000000 24.000000 L 46.000000 24.000000 Z M 61.000000 24.000000 L 61.000000 31.000000 L 50.000000 31.000000 L 50.000000 24.000000 L 61.000000 24.000000 Z M 76.000000 24.000000 L 76.000000 31.000000 L 65.000000 31.000000 L 65.000000 24.000000 L 76.000000 24.000000 Z M 76.000000 42.000000 L 65.000000 42.000000 L 65.000000 35.000000 L 76.000000 35.000000 L 76.000000 42.000000 Z M 76.000000 50.500000 L 65.000000 51.500000 L 65.000000 46.000000 L 76.000000 46.000000 L 76.000000 50.500000 Z M 31.000000 46.000000 L 31.000000 54.500000 L 20.000000 55.500000 L 20.000000 46.000000 L 31.000000 46.000000 Z M 31.000000 42.000000 L 20.000000 42.000000 L 20.000000 35.000000 L 31.000000 35.000000 L 31.000000 42.000000 Z M 46.000000 42.000000 L 35.000000 42.000000 L 35.000000 35.000000 L 46.000000 35.000000 L 46.000000 42.000000 Z M 50.000000 42.000000 L 50.000000 35.000000 L 61.000000 35.000000 L 61.000000 42.000000 L 50.000000 42.000000 Z M 46.000000 53.200001 L 35.000000 54.200001 L 35.000000 46.000000 L 46.000000 46.000000 L 46.000000 53.200001 Z M 50.000000 46.000000 L 61.000000 46.000000 L 61.000000 51.799999 L 50.000000 52.799999 L 50.000000 46.000000 Z M 82.000000 56.000000 L 82.000000 18.000000 L 20.000000 18.000000 L 20.000000 17.000000 C 20.000000 12.000000 16.000000 8.000000 11.000000 8.000000 C 9.300000 8.000000 8.000000 9.300000 8.000000 11.000000 C 8.000000 12.700000 9.300000 14.000000 11.000000 14.000000 C 12.700000 14.000000 14.000000 15.300000 14.000000 17.000000 L 14.000000 67.000000 C 14.000000 72.000000 18.000000 76.000000 23.000000 76.000000 L 26.000000 76.000000 L 70.000000 76.000000 L 79.000000 76.000000 C 80.699997 76.000000 82.000000 74.699997 82.000000 73.000000 C 82.000000 71.300003 80.699997 70.000000 79.000000 70.000000 L 23.000000 70.000000 C 21.299999 70.000000 20.000000 68.699997 20.000000 67.000000 L 20.000000 61.500000 L 82.000000 56.000000 Z" stroke="none" stroke-width="1.000000" stroke-dasharray="" stroke-dashoffset="1.000000" fill="#00B050" fill-opacity="1.000000"/><circle cx="26.000000" cy="82.000000" r="6.000000" stroke="none" stroke-width="1.000000" stroke-dasharray="" stroke-dashoffset="1.000000" fill="#00B050" fill-opacity="1.000000"/><circle cx="70.000000" cy="82.000000" r="6.000000" stroke="none" stroke-width="1.000000" stroke-dasharray="" stroke-dashoffset="1.000000" fill="#00B050" fill-opacity="1.000000"/></svg>